<svg xmlns="http://www.w3.org/2000/svg" width="68.869" height="75.808" viewBox="0 0 68.869 75.808">
  <g id="Group_2" data-name="Group 2" transform="translate(0 0.05)">
    <path id="Path_1" data-name="Path 1" d="M37.62,36.457c-.12-1.078-.24-2.036-.359-3.114,0-.479-.12-.958-.12-1.437a1.08,1.08,0,0,0-.12-.6c-.24-1.8-.6-3.473-.958-5.27L35.7,24.6v.12a58.072,58.072,0,0,0-1.916,7.546c-1.2,5.749-1.916,11.618-3.114,17.367A58.765,58.765,0,0,1,28.4,58.376c-.958,2.515-2.276,4.911-5.03,5.869-5.39,1.557-7.785-4.791-8.983-8.5-1.437-4.432-2.4-8.983-3.473-13.534a17,17,0,0,1-.6-2.635C8.994,45.56,8.4,51.669,6,57.418v.12L26.361,69.275a14.037,14.037,0,0,0,7.785,1.557c.12-.12.12-.359.24-.479s.12-.24.24-.479c.24-.719.6-1.557.838-2.276A43.036,43.036,0,0,0,36.9,61.969a27.975,27.975,0,0,0,.479-3.114h0a1.519,1.519,0,0,1,.12-.719,7.907,7.907,0,0,0,.12-1.677c.24-2.156.359-4.432.479-6.707C38.1,45.44,37.979,40.889,37.62,36.457Z" transform="translate(1.186 4.874)" fill="#d6345f"/>
    <path id="Path_2" data-name="Path 2" d="M40.89,51.714a91.477,91.477,0,0,1-1.8,16.05l16.05-9.342A14.994,14.994,0,0,0,61.85,46.684V45.366L35.5,17.1c1.677,2.276,2.515,5.39,3.234,8.145A103.636,103.636,0,0,1,40.89,51.714Z" transform="translate(7.019 3.391)" fill="#d6345f"/>
    <path id="Path_3" data-name="Path 3" d="M62.162,13.9,40.962,1.567a14.969,14.969,0,0,0-13.534,0L6.587,13.9C2.875,16.059,0,21.329,0,25.641V50.195a13.141,13.141,0,0,0,.6,4.192c.838-3.713,1.437-7.426,2.156-11.019A49.333,49.333,0,0,1,4.911,35.1c.958-2.4,2.276-5.15,5.03-5.749,2.875-.6,5.27.838,6.707,3.354l8.5,8.983a99.38,99.38,0,0,1,2.875-13.175c.958-3.114,2.156-7.426,4.791-9.582,3.473-2.755,7.186-1.916,9.821,1.437l26.23,28.386V25.641C68.749,21.329,65.875,16.059,62.162,13.9Z" transform="translate(0 0)" fill="#fb3b64"/>
    <path id="Path_4" data-name="Path 4" d="M17.852,39.277c.719,3.114,1.437,6.348,2.276,9.462.6-2.515.958-4.911,1.437-7.426.24-1.677.6-3.354.838-5.03L13.9,27.3C15.936,30.893,16.894,35.325,17.852,39.277Z" transform="translate(2.748 5.408)" fill="#d6345f"/>
  </g>
</svg>
